<?xml version="1.0" encoding="UTF-8" standalone="no"?>
<!-- Created with Inkscape (http://www.inkscape.org/) -->

<svg
   xmlns:osb="http://www.openswatchbook.org/uri/2009/osb"
   xmlns:dc="http://purl.org/dc/elements/1.1/"
   xmlns:cc="http://creativecommons.org/ns#"
   xmlns:rdf="http://www.w3.org/1999/02/22-rdf-syntax-ns#"
   xmlns:svg="http://www.w3.org/2000/svg"
   xmlns="http://www.w3.org/2000/svg"
   xmlns:sodipodi="http://sodipodi.sourceforge.net/DTD/sodipodi-0.dtd"
   xmlns:inkscape="http://www.inkscape.org/namespaces/inkscape"
   width="512"
   height="512"
   viewBox="0 0 135.46666 135.46667"
   version="1.1"
   id="svg8"
   inkscape:version="0.92.3 (2405546, 2018-03-11)"
   sodipodi:docname="skull_icon.svg"
   inkscape:export-filename="C:\Users\TomHerbers\PhpstormProjects\deadmanstrigger\skull_icon_512px.png"
   inkscape:export-xdpi="96"
   inkscape:export-ydpi="96">
  <title
     id="title4920">Skull black</title>
  <defs
     id="defs2">
    <linearGradient
       id="linearGradient4809"
       osb:paint="solid">
      <stop
         style="stop-color:#000000;stop-opacity:1;"
         offset="0"
         id="stop4807" />
    </linearGradient>
    <clipPath
       clipPathUnits="userSpaceOnUse"
       id="clipPath9148">
      <g
         id="use9150"
         inkscape:label="Clip">
        <path
           d="m 96.303218,154.404 0.190533,0.17551 0.145107,0.21461 c 3.948352,5.83042 4.268862,12.45328 4.578652,18.85847 0.26436,5.47077 0.51419,10.63746 2.89594,15.23628 6.49794,12.54727 24.44091,13.18263 27.97159,13.18263 0.31484,0 0.49402,-0.004 0.51422,-0.007 l 0.0771,-0.003 0.0794,0.003 c 0.0167,6.2e-4 0.19744,0.004 0.5123,0.004 3.53068,0 21.47364,-0.63536 27.9722,-13.18264 2.38176,-4.59881 2.63163,-9.76612 2.8966,-15.2369 0.30979,-6.40519 0.63031,-13.02806 4.57738,-18.85846 l 0.14499,-0.21462 0.19053,-0.17526 c 5.05502,-4.65815 9.60465,-9.87909 13.52396,-15.5202 6.36103,-12.08985 8.9491,-29.51989 6.4399,-43.423649 -5.05563,-28.016527 -22.43076,-40.510681 -56.33687,-40.510681 -33.90608,0 -51.281227,12.494154 -56.338117,40.511781 -2.508573,13.901879 0.0795,31.332519 6.439886,43.423649 3.921219,5.64175 8.471475,10.86334 13.524581,15.5202 z m 43.117642,-32.79375 c 2.95781,-6.96168 12.53088,-9.55604 21.38405,-5.79635 8.85508,3.76035 13.63375,12.45202 10.67657,19.41367 -2.95652,6.96166 -12.5296,9.55667 -21.38278,5.79697 -8.85382,-3.76161 -13.63499,-12.45328 -10.67784,-19.41429 z m 5.31241,42.23686 c 0,7.96484 -5.39632,7.7415 -12.05639,7.7415 -6.6607,0 -12.05642,0.22344 -12.05642,-7.7415 0,-7.96293 12.05642,-21.09823 12.05642,-21.09823 0,0 12.05639,13.1353 12.05639,21.09823 z m -40.1857,-48.03321 c 8.85382,-3.76033 18.42624,-1.16595 21.38279,5.79635 2.95841,6.96166 -1.82275,15.65334 -10.67532,19.41429 -8.85255,3.76034 -18.42752,1.16534 -21.384048,-5.79697 -2.957791,-6.96104 1.822749,-15.65332 10.676578,-19.41367 z"
           id="path4789"
           inkscape:connector-curvature="0"
           style="fill:#ffffff;fill-opacity:1;stroke:none;stroke-width:10;stroke-miterlimit:4;stroke-dasharray:none;stroke-opacity:1" />
      </g>
    </clipPath>
    <clipPath
       clipPathUnits="userSpaceOnUse"
       id="clipPath9148-4">
      <g
         style="fill:#ffff52;fill-opacity:1;fill-rule:nonzero;stroke:none"
         id="use9150-1"
         inkscape:label="Clip">
        <path
           d="m 96.303218,154.404 0.190533,0.17551 0.145107,0.21461 c 3.948352,5.83042 4.268862,12.45328 4.578652,18.85847 0.26436,5.47077 0.51419,10.63746 2.89594,15.23628 6.49794,12.54727 24.44091,13.18263 27.97159,13.18263 0.31484,0 0.49402,-0.004 0.51422,-0.007 l 0.0771,-0.003 0.0794,0.003 c 0.0167,6.2e-4 0.19744,0.004 0.5123,0.004 3.53068,0 21.47364,-0.63536 27.9722,-13.18264 2.38176,-4.59881 2.63163,-9.76612 2.8966,-15.2369 0.30979,-6.40519 0.63031,-13.02806 4.57738,-18.85846 l 0.14499,-0.21462 0.19053,-0.17526 c 5.05502,-4.65815 9.60465,-9.87909 13.52396,-15.5202 6.36103,-12.08985 8.9491,-29.51989 6.4399,-43.423649 -5.05563,-28.016527 -22.43076,-40.510681 -56.33687,-40.510681 -33.90608,0 -51.281227,12.494154 -56.338117,40.511781 -2.508573,13.901879 0.0795,31.332519 6.439886,43.423649 3.921219,5.64175 8.471475,10.86334 13.524581,15.5202 z m 43.117642,-32.79375 c 2.95781,-6.96168 12.53088,-9.55604 21.38405,-5.79635 8.85508,3.76035 13.63375,12.45202 10.67657,19.41367 -2.95652,6.96166 -12.5296,9.55667 -21.38278,5.79697 -8.85382,-3.76161 -13.63499,-12.45328 -10.67784,-19.41429 z m 5.31241,42.23686 c 0,7.96484 -5.39632,7.7415 -12.05639,7.7415 -6.6607,0 -12.05642,0.22344 -12.05642,-7.7415 0,-7.96293 12.05642,-21.09823 12.05642,-21.09823 0,0 12.05639,13.1353 12.05639,21.09823 z m -40.1857,-48.03321 c 8.85382,-3.76033 18.42624,-1.16595 21.38279,5.79635 2.95841,6.96166 -1.82275,15.65334 -10.67532,19.41429 -8.85255,3.76034 -18.42752,1.16534 -21.384048,-5.79697 -2.957791,-6.96104 1.822749,-15.65332 10.676578,-19.41367 z"
           id="path4834"
           inkscape:connector-curvature="0"
           style="fill:#ffff52;fill-opacity:1;fill-rule:nonzero;stroke:none;stroke-width:10;stroke-miterlimit:4;stroke-dasharray:none;stroke-opacity:1" />
      </g>
    </clipPath>
    <clipPath
       clipPathUnits="userSpaceOnUse"
       id="clipPath9148-4-1">
      <g
         style="fill:#ffff52;fill-opacity:1;fill-rule:nonzero;stroke:none"
         id="use9150-1-0"
         inkscape:label="Clip">
        <path
           d="m 96.303218,154.404 0.190533,0.17551 0.145107,0.21461 c 3.948352,5.83042 4.268862,12.45328 4.578652,18.85847 0.26436,5.47077 0.51419,10.63746 2.89594,15.23628 6.49794,12.54727 24.44091,13.18263 27.97159,13.18263 0.31484,0 0.49402,-0.004 0.51422,-0.007 l 0.0771,-0.003 0.0794,0.003 c 0.0167,6.2e-4 0.19744,0.004 0.5123,0.004 3.53068,0 21.47364,-0.63536 27.9722,-13.18264 2.38176,-4.59881 2.63163,-9.76612 2.8966,-15.2369 0.30979,-6.40519 0.63031,-13.02806 4.57738,-18.85846 l 0.14499,-0.21462 0.19053,-0.17526 c 5.05502,-4.65815 9.60465,-9.87909 13.52396,-15.5202 6.36103,-12.08985 8.9491,-29.51989 6.4399,-43.423649 -5.05563,-28.016527 -22.43076,-40.510681 -56.33687,-40.510681 -33.90608,0 -51.281227,12.494154 -56.338117,40.511781 -2.508573,13.901879 0.0795,31.332519 6.439886,43.423649 3.921219,5.64175 8.471475,10.86334 13.524581,15.5202 z m 43.117642,-32.79375 c 2.95781,-6.96168 12.53088,-9.55604 21.38405,-5.79635 8.85508,3.76035 13.63375,12.45202 10.67657,19.41367 -2.95652,6.96166 -12.5296,9.55667 -21.38278,5.79697 -8.85382,-3.76161 -13.63499,-12.45328 -10.67784,-19.41429 z m 5.31241,42.23686 c 0,7.96484 -5.39632,7.7415 -12.05639,7.7415 -6.6607,0 -12.05642,0.22344 -12.05642,-7.7415 0,-7.96293 12.05642,-21.09823 12.05642,-21.09823 0,0 12.05639,13.1353 12.05639,21.09823 z m -40.1857,-48.03321 c 8.85382,-3.76033 18.42624,-1.16595 21.38279,5.79635 2.95841,6.96166 -1.82275,15.65334 -10.67532,19.41429 -8.85255,3.76034 -18.42752,1.16534 -21.384048,-5.79697 -2.957791,-6.96104 1.822749,-15.65332 10.676578,-19.41367 z"
           id="path4865"
           inkscape:connector-curvature="0"
           style="fill:#ffff52;fill-opacity:1;fill-rule:nonzero;stroke:none;stroke-width:10;stroke-miterlimit:4;stroke-dasharray:none;stroke-opacity:1" />
      </g>
    </clipPath>
    <clipPath
       clipPathUnits="userSpaceOnUse"
       id="clipPath9148-4-1-0">
      <g
         style="fill:#ffff52;fill-opacity:1;fill-rule:nonzero;stroke:none"
         id="use9150-1-0-9"
         inkscape:label="Clip">
        <path
           d="m 96.303218,154.404 0.190533,0.17551 0.145107,0.21461 c 3.948352,5.83042 4.268862,12.45328 4.578652,18.85847 0.26436,5.47077 0.51419,10.63746 2.89594,15.23628 6.49794,12.54727 24.44091,13.18263 27.97159,13.18263 0.31484,0 0.49402,-0.004 0.51422,-0.007 l 0.0771,-0.003 0.0794,0.003 c 0.0167,6.2e-4 0.19744,0.004 0.5123,0.004 3.53068,0 21.47364,-0.63536 27.9722,-13.18264 2.38176,-4.59881 2.63163,-9.76612 2.8966,-15.2369 0.30979,-6.40519 0.63031,-13.02806 4.57738,-18.85846 l 0.14499,-0.21462 0.19053,-0.17526 c 5.05502,-4.65815 9.60465,-9.87909 13.52396,-15.5202 6.36103,-12.08985 8.9491,-29.51989 6.4399,-43.423649 -5.05563,-28.016527 -22.43076,-40.510681 -56.33687,-40.510681 -33.90608,0 -51.281227,12.494154 -56.338117,40.511781 -2.508573,13.901879 0.0795,31.332519 6.439886,43.423649 3.921219,5.64175 8.471475,10.86334 13.524581,15.5202 z m 43.117642,-32.79375 c 2.95781,-6.96168 12.53088,-9.55604 21.38405,-5.79635 8.85508,3.76035 13.63375,12.45202 10.67657,19.41367 -2.95652,6.96166 -12.5296,9.55667 -21.38278,5.79697 -8.85382,-3.76161 -13.63499,-12.45328 -10.67784,-19.41429 z m 5.31241,42.23686 c 0,7.96484 -5.39632,7.7415 -12.05639,7.7415 -6.6607,0 -12.05642,0.22344 -12.05642,-7.7415 0,-7.96293 12.05642,-21.09823 12.05642,-21.09823 0,0 12.05639,13.1353 12.05639,21.09823 z m -40.1857,-48.03321 c 8.85382,-3.76033 18.42624,-1.16595 21.38279,5.79635 2.95841,6.96166 -1.82275,15.65334 -10.67532,19.41429 -8.85255,3.76034 -18.42752,1.16534 -21.384048,-5.79697 -2.957791,-6.96104 1.822749,-15.65332 10.676578,-19.41367 z"
           id="path4896"
           inkscape:connector-curvature="0"
           style="fill:#ffff52;fill-opacity:1;fill-rule:nonzero;stroke:none;stroke-width:10;stroke-miterlimit:4;stroke-dasharray:none;stroke-opacity:1" />
      </g>
    </clipPath>
  </defs>
  <sodipodi:namedview
     id="base"
     pagecolor="#ffffff"
     bordercolor="#666666"
     borderopacity="1.0"
     inkscape:pageopacity="0"
     inkscape:pageshadow="2"
     inkscape:zoom="1.4"
     inkscape:cx="263.00794"
     inkscape:cy="268.30513"
     inkscape:document-units="px"
     inkscape:current-layer="layer1"
     showgrid="false"
     units="px"
     inkscape:pagecheckerboard="true"
     inkscape:window-width="1920"
     inkscape:window-height="1017"
     inkscape:window-x="-8"
     inkscape:window-y="-8"
     inkscape:window-maximized="1"
     showborder="true"
     borderlayer="false"
     inkscape:showpageshadow="true" />
  <metadata
     id="metadata5">
    <rdf:RDF>
      <cc:Work
         rdf:about="">
        <dc:format>image/svg+xml</dc:format>
        <dc:type
           rdf:resource="http://purl.org/dc/dcmitype/StillImage" />
        <dc:title>Skull black</dc:title>
        <dc:date>19.06.2018</dc:date>
        <dc:source>www.deadmanstrigger.de</dc:source>
      </cc:Work>
    </rdf:RDF>
  </metadata>
  <g
     inkscape:label="background"
     inkscape:groupmode="layer"
     id="layer1"
     transform="translate(0,-161.53332)"
     style="display:inline">
    <ellipse
       style="opacity:1;fill:#000002;fill-opacity:1;stroke-width:0.13536999"
       id="path833"
       cx="114.97659"
       cy="209.78152"
       rx="67.731071"
       ry="67.735596"
       transform="matrix(0.9776329,0.21031858,-0.21046316,0.97760179,0,0)" />
  </g>
  <g
     inkscape:groupmode="layer"
     id="layer2"
     inkscape:label="bones"
     style="display:inline"
     transform="translate(0,-129.11667)">
    <path
       d="m 127.84957,177.55254 c -1.23765,-2.94494 -3.484,-5.24581 -6.32663,-6.48166 -0.50975,-0.22175 -0.81354,-0.76124 -0.73961,-1.31291 0.16352,-1.19844 0.13746,-2.4131 -0.0748,-3.60839 -1.06231,-5.97461 -6.48796,-10.02379 -12.09164,-9.02681 -5.60413,0.99697 -9.299512,6.66869 -8.23673,12.6424 0.26953,1.52116 0.82209,2.94043 1.63833,4.21821 0.1929,0.30016 0.24655,0.66839 0.15143,1.01004 -0.0961,0.34299 -0.33351,0.62873 -0.65396,0.78378 l -7.265493,5.5935 c -0.290242,2.52713 -4.041073,13.87845 -5.282324,16.2735 -5.491001,10.60297 -17.710593,0.79876 -20.558178,0.79876 -11.213528,3.76225 -23.085099,-5.04719 -24.99337,-15.56758 l -8.959068,-7.09818 c -0.319555,-0.15501 -0.557989,-0.44124 -0.653984,-0.78378 -0.09607,-0.34165 -0.04054,-0.70988 0.151444,-1.01004 0.816233,-1.27778 1.368785,-2.69752 1.639212,-4.21821 1.061433,-5.97371 -2.633037,-11.6459 -8.237629,-12.6424 -5.60411,-0.99653 -11.029307,3.0522 -12.090739,9.02681 -0.21319,1.19529 -0.238416,2.40995 -0.07479,3.60839 0.07393,0.55167 -0.229863,1.09116 -0.740511,1.31291 -2.841729,1.23585 -5.0889668,3.53718 -6.3257254,6.48166 -1.214655,2.88861 -1.3070587,6.05394 -0.2587023,8.9137 1.0623365,2.89401 3.1585747,5.12367 5.9025057,6.27794 0.716619,0.30198 1.466608,0.52372 2.22785,0.65848 5.042988,0.89737 10.29602,-2.07236 12.490534,-7.06126 0.134742,-0.30965 0.396175,-0.55347 0.713018,-0.66975 0.314137,-0.11533 0.673367,-0.0973 0.976245,0.0504 l 19.48695,15.99975 -13.572285,6.65923 c -0.306478,0.14923 -0.673353,0.16627 -0.992908,0.0438 -0.321361,-0.1235 -0.580064,-0.37726 -0.711216,-0.69681 l -0.07121,-0.18072 c -2.151243,-5.11647 -7.440335,-8.16688 -12.574809,-7.25284 -0.760808,0.13559 -1.510781,0.35696 -2.229662,0.65893 -2.717346,1.14345 -4.804568,3.34381 -5.87411,6.19682 -1.079444,2.87914 -0.996517,6.07332 0.230771,8.99482 1.238537,2.94358 3.485789,5.24581 6.327508,6.4821 0.50976,0.22176 0.813545,0.7608 0.738727,1.31247 -0.162684,1.19845 -0.138323,2.41311 0.07478,3.60884 1.063222,5.97415 6.487515,10.02289 12.093446,9.02682 5.603229,-0.99787 9.298604,-6.66915 8.236731,-12.64332 -0.246549,-1.37601 -0.727894,-2.68082 -1.436418,-3.87746 -0.177123,-0.29837 -0.220834,-0.66028 -0.120776,-0.9929 0.09863,-0.33308 0.336232,-0.6116 0.64858,-0.76352 l 27.557316,-13.73312 27.557761,13.73312 c 0,0 0.550298,0.43044 0.64812,0.76352 0.100501,0.33262 0.05641,0.69453 -0.119925,0.9929 -0.708527,1.19664 -1.19122,2.501 -1.436862,3.87746 -1.061432,5.97417 2.633938,11.64545 8.236726,12.64332 5.60594,0.99652 11.02932,-3.05267 12.09255,-9.02682 0.21408,-1.19573 0.23842,-2.41039 0.0748,-3.60884 -0.0739,-0.55167 0.22986,-1.09071 0.73961,-1.31247 2.84173,-1.23629 5.08806,-3.53852 6.32662,-6.4821 1.22818,-2.9215 1.30976,-6.11568 0.23076,-8.99482 -1.06954,-2.85301 -3.15588,-5.05382 -5.8741,-6.19682 -0.71935,-0.30197 -1.46932,-0.52327 -2.22878,-0.65893 -5.13582,-0.91404 -10.42445,2.13637 -12.57569,7.25283 l -0.0712,0.18072 c -0.13031,0.32002 -0.38986,0.57331 -0.71121,0.69681 -0.31955,0.12265 -0.68643,0.10544 -0.992921,-0.0438 l -13.948332,-7.03527 19.862993,-15.6237 c 0.30288,-0.14787 0.66208,-0.16594 0.97714,-0.0504 0.31595,0.11668 0.57737,0.3601 0.71302,0.66975 2.19362,4.98936 7.44619,7.95863 12.49054,7.06127 0.76124,-0.13473 1.51077,-0.35651 2.22785,-0.65849 2.74393,-1.15428 4.83882,-3.38393 5.90161,-6.27793 1.04788,-2.85976 0.95549,-6.02556 -0.25917,-8.91371 z"
       id="path8501"
       inkscape:connector-curvature="0"
       style="fill:#ffffff;fill-opacity:1;stroke-width:0.45070997"
       sodipodi:nodetypes="ccccccccccccccccccccccccccccccccccccccccccccccccccccccccccccccccccccccc" />
  </g>
  <g
     inkscape:groupmode="layer"
     id="layer4"
     inkscape:label="kreis"
     style="display:inline"
     transform="translate(0,-129.11667)">
    <ellipse
       style="display:inline;opacity:1;fill:#000000;fill-opacity:0.99716713;stroke:none;stroke-width:0.13161851;stroke-opacity:0.99716713"
       id="path9152"
       ry="27.357851"
       rx="22.093107"
       cy="190.63019"
       cx="67.833824" />
  </g>
  <g
     inkscape:groupmode="layer"
     id="layer3"
     inkscape:label="skull"
     style="display:inline"
     transform="translate(0,-129.11667)">
    <g
       style="display:inline;opacity:1;fill:#ffffff;fill-opacity:1;fill-rule:nonzero;stroke:none"
       id="g9146"
       clip-path="none"
       transform="matrix(0.49745585,0,0,0.49745583,1.9866267,132.92151)">
      <g
         inkscape:label="Clip"
         id="g9144"
         style="fill:#ffffff;fill-opacity:1;fill-rule:nonzero;stroke:none">
        <path
           style="fill:#ffffff;fill-opacity:1;fill-rule:nonzero;stroke:none;stroke-width:10;stroke-miterlimit:4;stroke-dasharray:none;stroke-opacity:1"
           inkscape:connector-curvature="0"
           id="path8503"
           d="m 96.303218,154.404 0.190533,0.17551 0.145107,0.21461 c 3.948352,5.83042 4.268862,12.45328 4.578652,18.85847 0.26436,5.47077 0.51419,10.63746 2.89594,15.23628 6.49794,12.54727 24.44091,13.18263 27.97159,13.18263 0.31484,0 0.49402,-0.004 0.51422,-0.007 l 0.0771,-0.003 0.0794,0.003 c 0.0167,6.2e-4 0.19744,0.004 0.5123,0.004 3.53068,0 21.47364,-0.63536 27.9722,-13.18264 2.38176,-4.59881 2.63163,-9.76612 2.8966,-15.2369 0.30979,-6.40519 0.63031,-13.02806 4.57738,-18.85846 l 0.14499,-0.21462 0.19053,-0.17526 c 5.05502,-4.65815 9.60465,-9.87909 13.52396,-15.5202 6.36103,-12.08985 8.9491,-29.51989 6.4399,-43.423649 -5.05563,-28.016527 -22.43076,-40.510681 -56.33687,-40.510681 -33.90608,0 -51.281227,12.494154 -56.338117,40.511781 -2.508573,13.901879 0.0795,31.332519 6.439886,43.423649 3.921219,5.64175 8.471475,10.86334 13.524581,15.5202 z m 43.117642,-32.79375 c 2.95781,-6.96168 12.53088,-9.55604 21.38405,-5.79635 8.85508,3.76035 13.63375,12.45202 10.67657,19.41367 -2.95652,6.96166 -12.5296,9.55667 -21.38278,5.79697 -8.85382,-3.76161 -13.63499,-12.45328 -10.67784,-19.41429 z m 5.31241,42.23686 c 0,7.96484 -5.39632,7.7415 -12.05639,7.7415 -6.6607,0 -12.05642,0.22344 -12.05642,-7.7415 0,-7.96293 12.05642,-21.09823 12.05642,-21.09823 0,0 12.05639,13.1353 12.05639,21.09823 z m -40.1857,-48.03321 c 8.85382,-3.76033 18.42624,-1.16595 21.38279,5.79635 2.95841,6.96166 -1.82275,15.65334 -10.67532,19.41429 -8.85255,3.76034 -18.42752,1.16534 -21.384048,-5.79697 -2.957791,-6.96104 1.822749,-15.65332 10.676578,-19.41367 z" />
      </g>
    </g>
  </g>
</svg>
