<?xml version="1.0" encoding="UTF-8" standalone="no"?>
<!DOCTYPE svg PUBLIC "-//W3C//DTD SVG 1.1//EN" "http://www.w3.org/Graphics/SVG/1.1/DTD/svg11.dtd">
<svg width="100%" height="100%" viewBox="0 0 512 512" version="1.1" xmlns="http://www.w3.org/2000/svg" xmlns:xlink="http://www.w3.org/1999/xlink" xml:space="preserve" xmlns:serif="http://www.serif.com/" style="fill-rule:evenodd;clip-rule:evenodd;stroke-linejoin:round;stroke-miterlimit:1.41421;">
    <rect id="skull_icon" x="0" y="0" width="512" height="512" style="fill:none;"/>
    <clipPath id="_clip1">
        <rect id="skull_icon1" serif:id="skull_icon" x="0" y="0" width="512" height="512"/>
    </clipPath>
    <g clip-path="url(#_clip1)">
        <g id="Kreis" transform="matrix(1,-2.77556e-17,-0.000147889,1,-178.486,-536.866)">
            <ellipse cx="434.557" cy="792.875" rx="255.991" ry="256.009"/>
        </g>
        <g id="Knochen" transform="matrix(1,0,0,1,0,-488)">
            <path d="M483.211,671.065C478.533,659.934 470.043,651.238 459.299,646.567C457.373,645.729 456.225,643.69 456.504,641.605C457.122,637.075 457.023,632.485 456.221,627.967C452.206,605.386 431.7,590.082 410.521,593.85C389.34,597.618 375.373,619.054 379.39,641.632C380.408,647.381 382.497,652.746 385.582,657.575C386.311,658.709 386.514,660.101 386.154,661.392C385.791,662.689 384.894,663.769 383.682,664.355L356.222,685.496L358.592,734.409L338.455,767.881L306.056,797.625L256.731,764.81L206.618,798.247L173.868,769.201L166.583,745.072L164.094,691.183L130.233,664.355C129.025,663.769 128.124,662.687 127.761,661.392C127.398,660.101 127.608,658.709 128.334,657.575C131.419,652.746 133.507,647.38 134.529,641.632C138.541,619.054 124.578,597.616 103.395,593.85C82.214,590.083 61.709,605.386 57.698,627.967C56.892,632.485 56.797,637.075 57.415,641.605C57.694,643.69 56.546,645.729 54.616,646.567C43.876,651.238 35.382,659.936 30.708,671.065C26.117,681.982 25.768,693.946 29.73,704.754C33.745,715.692 41.668,724.119 52.039,728.482C54.747,729.623 57.582,730.461 60.459,730.971C79.519,734.362 99.373,723.138 107.667,704.282C108.177,703.112 109.165,702.191 110.362,701.751C111.55,701.315 112.907,701.383 114.052,701.942L166.583,745.072L173.868,769.201L136.407,787.582C135.248,788.146 133.862,788.21 132.654,787.747C131.439,787.281 130.462,786.322 129.966,785.114L129.697,784.431C121.566,765.093 101.576,753.564 82.17,757.018C79.294,757.531 76.46,758.368 73.743,759.509C63.473,763.831 55.584,772.147 51.541,782.93C47.462,793.812 47.775,805.884 52.414,816.926C57.095,828.051 65.588,836.753 76.329,841.425C78.255,842.264 79.403,844.301 79.121,846.386C78.506,850.915 78.598,855.506 79.403,860.026C83.422,882.605 103.923,897.907 125.111,894.143C146.288,890.371 160.255,868.936 156.242,846.357C155.31,841.156 153.491,836.225 150.813,831.702C150.143,830.574 149.978,829.206 150.356,827.949C150.729,826.69 151.627,825.638 152.808,825.064L206.618,798.247L256.731,764.81L306.056,797.625L361.117,825.064C361.117,825.064 363.196,826.69 363.566,827.949C363.946,829.206 363.779,830.574 363.113,831.702C360.435,836.225 358.611,841.155 357.682,846.357C353.671,868.936 367.637,890.371 388.813,894.143C410.001,897.909 430.499,882.605 434.517,860.026C435.326,855.506 435.418,850.915 434.8,846.386C434.521,844.301 435.669,842.264 437.595,841.425C448.336,836.753 456.826,828.051 461.507,816.926C466.149,805.884 466.457,793.812 462.379,782.93C458.337,772.147 450.451,763.829 440.178,759.509C437.459,758.368 434.625,757.531 431.754,757.018C412.343,753.564 392.355,765.093 384.224,784.431L383.955,785.114C383.462,786.323 382.481,787.281 381.267,787.747C380.059,788.211 378.672,788.146 377.514,787.582L338.455,767.881L358.592,734.409L399.869,701.942C401.013,701.383 402.371,701.314 403.562,701.751C404.756,702.192 405.744,703.112 406.257,704.282C414.548,723.14 434.4,734.362 453.465,730.971C456.342,730.461 459.175,729.623 461.885,728.482C472.256,724.119 480.174,715.692 484.191,704.754C488.151,693.946 487.802,681.981 483.211,671.065L483.211,671.065Z" style="fill:white;fill-rule:nonzero;"/>
        </g>
        <path id="Kopf" d="M188.573,304.683L188.931,305.013L189.204,305.416C196.627,316.378 197.23,328.83 197.812,340.873C198.309,351.159 198.779,360.873 203.257,369.52C215.474,393.11 249.21,394.305 255.848,394.305C256.44,394.305 256.777,394.297 256.815,394.292L256.96,394.286L257.109,394.292C257.14,394.293 257.48,394.299 258.072,394.299C264.71,394.299 298.446,393.105 310.664,369.514C315.142,360.867 315.612,351.152 316.11,340.866C316.693,328.824 317.295,316.372 324.716,305.41L324.989,305.006L325.347,304.677C334.851,295.918 343.405,286.102 350.774,275.496C362.734,252.766 367.6,219.994 362.882,193.853C353.377,141.178 320.709,117.687 256.96,117.687C193.212,117.687 160.544,141.178 151.036,193.855C146.32,219.993 151.186,252.765 163.144,275.498C170.517,286.106 179.072,295.923 188.573,304.679L188.573,304.683ZM279.628,322.437C279.628,337.412 269.483,336.992 256.961,336.992C244.438,336.992 234.293,337.413 234.293,322.437C234.293,307.466 256.961,282.77 256.961,282.77C256.961,282.77 279.628,307.466 279.628,322.437ZM204.073,232.128C220.72,225.058 238.717,229.936 244.276,243.026C249.838,256.115 240.849,272.456 224.205,279.528C207.561,286.597 189.559,281.719 184,268.628C178.447,255.559 187.402,239.244 204.073,232.128ZM269.64,243.026C275.201,229.937 293.2,225.059 309.846,232.128C326.494,239.198 335.479,255.539 329.919,268.628C324.36,281.717 306.362,286.596 289.716,279.528C273.101,272.468 264.114,256.175 269.64,243.026Z" style="fill:white;"/>
    </g>
</svg>
